<svg width="60" height="60" viewBox="0 0 60 60" fill="none" xmlns="http://www.w3.org/2000/svg">
<path d="M55.6055 31.4297L56.3789 30.2695C56.4375 30.1758 56.4493 30.0586 56.4024 29.9531L53.8946 24.4922C53.836 24.3633 53.8125 24.2109 53.8477 24.0703L54.1172 22.8984C54.1524 22.7578 54.2696 22.6523 54.4219 22.6406L58.0899 22.418C58.2657 22.4063 58.4063 22.2539 58.3946 22.0664L58.3243 20.8594C58.3125 20.6836 58.1602 20.543 57.9844 20.5547L38.0157 21.2109C37.8985 21.2109 37.8164 21.1055 37.8516 21L39.1289 17.1562C39.1641 17.0508 39.0821 16.9453 38.9766 16.9453H23.0977C22.9805 16.9453 22.9102 17.0508 22.9453 17.1562L24.2227 21.0117C24.2578 21.1172 24.1758 21.2227 24.0703 21.2227H16.7344C16.6289 21.2227 16.5235 21.2461 16.4297 21.3047L15.2461 21.9375C15.1172 22.0078 15.0469 22.1602 15.0821 22.3125L17.3438 31.5703C17.3672 31.6641 17.4258 31.7461 17.5078 31.7813L18.2227 32.1445C18.3164 32.1914 18.4219 32.2148 18.5274 32.2148H21.5391C21.7266 32.2148 21.8672 32.3672 21.8672 32.543V34.2188C21.8672 34.3594 21.7852 34.4766 21.6563 34.5234L9.25785 39.3398C9.17582 39.375 9.09379 39.375 9.01175 39.3398L8.00394 38.9063C7.91019 38.8711 7.80472 38.8711 7.71097 38.918L3.8555 41.1328C3.71488 41.2148 3.55082 41.2734 3.38675 41.2969L2.01566 41.4844C1.83988 41.5078 1.81644 41.7539 1.99222 41.8008L5.68363 42.9844C5.83597 43.0313 6.00003 43.0547 6.1641 43.043L16.5469 42.4336C16.6758 42.4219 16.8047 42.375 16.9102 42.3047L18.5039 41.0977C18.5508 41.0625 18.5743 41.0039 18.5625 40.9453C18.4219 39.8672 18.8321 38.7891 19.6993 38.0742L24.75 33.8555C25.4766 33.2461 26.3907 32.918 27.3282 32.918C28.2657 32.918 29.1797 33.2461 29.9063 33.8555L34.9688 38.0742C35.5196 38.543 35.8946 39.1406 36.0469 39.8086C36.0704 39.8906 36.1407 39.9375 36.211 39.9375C37.9571 39.8203 40.1133 39.668 41.7657 39.5391C41.8594 39.5273 41.918 39.457 41.918 39.3633C41.918 39.2695 41.9063 39.1641 41.9063 39.0586C41.9063 36.4453 44.0274 34.3242 46.6407 34.3242C48.1875 34.3242 49.5704 35.0742 50.4375 36.2227C50.4844 36.2813 50.5664 36.3047 50.6368 36.2695L51.7618 35.7188C51.9727 35.6133 52.2188 35.6367 52.418 35.7656L56.3438 38.3672C56.4961 38.4727 56.6954 38.4258 56.8008 38.2734L59.2383 34.5938C59.3438 34.4414 59.2969 34.2422 59.1446 34.1367L55.6993 31.875C55.5469 31.7813 55.5 31.582 55.6055 31.4297ZM21.9727 28.6055L18.0235 30.5039C17.9297 30.5508 17.8125 30.4922 17.7891 30.3984L15.9844 22.9453C15.961 22.8398 16.043 22.7461 16.1485 22.7461H23.086C23.1914 22.7461 23.2735 22.8398 23.25 22.9453L22.1485 28.3945C22.125 28.4766 22.0664 28.5586 21.9727 28.6055Z" fill="#3F4E54"/>
<path d="M4.125 31.8282L0.878906 33.6915C0.773438 33.7501 0.714844 33.8556 0.714844 33.9728L0.703125 37.7228C0.703125 37.8399 0.761719 37.9454 0.867188 38.004L4.10156 39.879C4.20703 39.9376 4.32422 39.9376 4.42969 39.879L7.67578 38.0157C7.78125 37.9571 7.83984 37.8517 7.83984 37.7345L7.85156 33.9962C7.85156 33.879 7.79297 33.7735 7.6875 33.7149L4.45312 31.8399C4.34766 31.7696 4.21875 31.7696 4.125 31.8282Z" fill="#3F4E54"/>
<path d="M27.3281 33.9961C28.0195 33.9961 28.6875 34.2422 29.2149 34.6758L34.2774 38.8945C35.1328 39.6094 35.168 40.5937 34.9219 41.2852C34.6758 41.9766 34.0078 42.7031 32.8945 42.7031H21.7734C20.6602 42.7031 19.9922 41.9648 19.7461 41.2852C19.5 40.6055 19.5352 39.6094 20.3906 38.8945L25.4414 34.6758C25.9688 34.2305 26.6367 33.9961 27.3281 33.9961ZM27.3281 33.6445C26.5781 33.6445 25.8281 33.9023 25.2188 34.418L20.168 38.6367C18.375 40.1367 19.4297 43.0664 21.7734 43.0664H32.8945C35.2383 43.0664 36.3047 40.1367 34.5 38.6367L29.4375 34.418C28.8281 33.8906 28.0781 33.6445 27.3281 33.6445Z" fill="#3F4E54"/>
<path d="M46.6406 35.0625C44.4375 35.0625 42.6445 36.8555 42.6445 39.0586C42.6445 41.2617 44.4375 43.0547 46.6406 43.0547C48.8437 43.0547 50.6367 41.2617 50.6367 39.0586C50.6367 36.8555 48.8555 35.0625 46.6406 35.0625ZM46.6406 41.4023C45.3516 41.4023 44.2969 40.3477 44.2969 39.0586C44.2969 37.7695 45.3516 36.7148 46.6406 36.7148C47.9297 36.7148 48.9844 37.7695 48.9844 39.0586C48.9844 40.3594 47.9414 41.4023 46.6406 41.4023Z" fill="#3F4E54"/>
<path d="M27.3398 34.4766C25.9336 34.4766 24.7969 35.6133 24.7969 37.0195C24.7969 38.4258 25.9336 39.5625 27.3398 39.5625C28.7461 39.5625 29.8828 38.4258 29.8828 37.0195C29.8828 35.6133 28.7344 34.4766 27.3398 34.4766ZM27.3398 38.0156C26.7891 38.0156 26.3555 37.5703 26.3555 37.0313C26.3555 36.4805 26.8008 36.0469 27.3398 36.0469C27.8906 36.0469 28.3242 36.4922 28.3242 37.0313C28.3242 37.5703 27.8789 38.0156 27.3398 38.0156Z" fill="#3F4E54"/>
<path d="M32.8945 38.8945C31.9688 38.8945 31.2305 39.6445 31.2305 40.5586C31.2305 41.4727 31.9805 42.2227 32.8945 42.2227C33.8203 42.2227 34.5586 41.4727 34.5586 40.5586C34.5586 39.6328 33.8086 38.8945 32.8945 38.8945ZM32.8945 41.2031C32.5313 41.2031 32.25 40.9102 32.25 40.5586C32.25 40.1953 32.543 39.9141 32.8945 39.9141C33.2461 39.9141 33.5391 40.207 33.5391 40.5586C33.5391 40.9102 33.2461 41.2031 32.8945 41.2031Z" fill="#3F4E54"/>
<path d="M21.7734 38.8945C20.8477 38.8945 20.1094 39.6445 20.1094 40.5586C20.1094 41.4727 20.8594 42.2227 21.7734 42.2227C22.6992 42.2227 23.4375 41.4727 23.4375 40.5586C23.4375 39.6328 22.6992 38.8945 21.7734 38.8945ZM21.7734 41.2031C21.4102 41.2031 21.1289 40.9102 21.1289 40.5586C21.1289 40.1953 21.4219 39.9141 21.7734 39.9141C22.1367 39.9141 22.418 40.207 22.418 40.5586C22.418 40.9102 22.1367 41.2031 21.7734 41.2031Z" fill="#3F4E54"/>
</svg>
