<svg width="60" height="60" viewBox="0 0 60 60" fill="none" xmlns="http://www.w3.org/2000/svg">
<path d="M47.5547 34.5117L47.0976 32.7773C47.0273 32.5195 46.7578 32.3672 46.5 32.4375L40.1719 34.125C40.0429 34.1602 39.914 34.1367 39.8086 34.0781L38.1094 33.0938C38.0273 33.0469 38.0273 32.9297 38.1094 32.8828L39.2109 32.25C39.4453 32.1211 39.5273 31.8164 39.3867 31.582L38.8476 30.6563C38.7187 30.4219 38.414 30.3398 38.1797 30.4805L36.1289 31.6641C35.9765 31.7461 35.789 31.7461 35.6367 31.6641L33.4804 30.4102C33.1523 30.2227 33.1523 29.7539 33.4804 29.5664L35.6367 28.3125C35.789 28.2305 35.9765 28.2305 36.1289 28.3125L38.1797 29.4961C38.414 29.625 38.707 29.5547 38.8476 29.3203L39.3867 28.3945C39.5156 28.1602 39.4453 27.8672 39.2109 27.7266L38.1094 27.0938C38.0273 27.0469 38.0273 26.9297 38.1094 26.8828L39.8086 25.8984C39.9258 25.8281 40.0547 25.8164 40.1719 25.8516L46.5 27.5391C46.7578 27.6094 47.0273 27.457 47.0976 27.1992L47.5547 25.4648C47.625 25.207 47.4726 24.9375 47.2148 24.8672L43.6523 23.918C43.5468 23.8945 43.5234 23.7539 43.6289 23.6953L48.0351 21.1406C48.2695 21.0117 48.3515 20.707 48.2109 20.4727L47.3086 18.9258C47.1797 18.6914 46.875 18.6094 46.6406 18.75L42.2343 21.3047C42.1406 21.3633 42.0234 21.2695 42.0586 21.1641L43.0078 17.6016C43.0781 17.3438 42.9258 17.0742 42.6679 17.0039L40.9336 16.5469C40.6758 16.4766 40.4062 16.6289 40.3359 16.8867L38.6484 23.2148C38.6133 23.3438 38.5312 23.4492 38.4258 23.5078L36.7265 24.4922C36.6445 24.5391 36.539 24.4805 36.539 24.3867V23.1211C36.539 22.8516 36.3164 22.6406 36.0469 22.6406H34.9804C34.7109 22.6406 34.5 22.8633 34.5 23.1328L34.5117 25.5C34.5117 25.6758 34.4179 25.8398 34.2656 25.9219L32.1211 27.1641C31.7929 27.3516 31.3945 27.1172 31.3945 26.7422V24.2695C31.3945 24.0938 31.4883 23.9297 31.6406 23.8477L33.7031 22.6641C33.9375 22.5352 34.0195 22.2305 33.8789 21.9961L33.3398 21.0703C33.2109 20.8359 32.9062 20.7539 32.6719 20.8945L31.5703 21.5273C31.4883 21.5742 31.3828 21.5156 31.3828 21.4219V19.4648C31.3828 19.3359 31.4297 19.207 31.5234 19.125L36.1523 14.4961C36.3398 14.3086 36.3398 14.0039 36.1523 13.8047L34.8867 12.5391C34.6992 12.3516 34.3945 12.3516 34.1953 12.5391L31.582 15.1523C31.5 15.2344 31.3711 15.1758 31.3711 15.0703V9.97266C31.3711 9.70312 31.1484 9.49219 30.8906 9.49219H29.0976C28.8281 9.49219 28.6172 9.71484 28.6172 9.97266V15.0703C28.6172 15.1758 28.4883 15.2344 28.4062 15.1523L25.7929 12.5391C25.6054 12.3516 25.3008 12.3516 25.1015 12.5391L23.8359 13.8047C23.6484 13.9922 23.6484 14.2969 23.8359 14.4961L28.4648 19.125C28.5586 19.2188 28.6054 19.3359 28.6054 19.4648V21.4219C28.6054 21.5156 28.5 21.5742 28.4179 21.5273L27.3164 20.8945C27.082 20.7656 26.789 20.8359 26.6484 21.0703L26.1094 21.9961C25.9804 22.2305 26.0508 22.5234 26.2851 22.6641L28.3359 23.8477C28.4883 23.9297 28.582 24.0938 28.582 24.2695V26.7422C28.582 27.1172 28.1719 27.3516 27.8554 27.1641L25.7109 25.9219C25.5586 25.8398 25.4648 25.6758 25.4648 25.5L25.4765 23.1328C25.4765 22.8633 25.2656 22.6406 24.9961 22.6406H23.9297C23.6601 22.6406 23.4375 22.8516 23.4375 23.1211V24.3867C23.4375 24.4805 23.332 24.5391 23.25 24.4922L21.5508 23.5078C21.4336 23.4375 21.3515 23.332 21.3281 23.2148L19.6406 16.8867C19.5703 16.6289 19.3008 16.4766 19.0429 16.5469L17.3086 17.0039C17.0508 17.0742 16.8984 17.3438 16.9687 17.6016L17.9179 21.1641C17.9414 21.2695 17.8359 21.3516 17.7422 21.3047L13.3359 18.75C13.1015 18.6211 12.8086 18.6914 12.6679 18.9258L11.7656 20.4727C11.6367 20.707 11.707 21 11.9414 21.1406L16.3476 23.6953C16.4414 23.7539 16.4179 23.8945 16.3242 23.918L12.7617 24.8672C12.5039 24.9375 12.3515 25.207 12.4219 25.4648L12.8789 27.1992C12.9492 27.457 13.2187 27.6094 13.4765 27.5391L19.8047 25.8516C19.9336 25.8164 20.0625 25.8398 20.1679 25.8984L21.8672 26.8828C21.9492 26.9297 21.9492 27.0469 21.8672 27.0938L20.7656 27.7266C20.5312 27.8555 20.4492 28.1602 20.5898 28.3945L21.1289 29.3203C21.2578 29.5547 21.5625 29.6367 21.7969 29.4961L23.8476 28.3125C24 28.2305 24.1875 28.2305 24.3398 28.3125L26.4961 29.5664C26.8242 29.7539 26.8242 30.2227 26.4961 30.4102L24.3398 31.6641C24.1875 31.7461 24 31.7461 23.8476 31.6641L21.7969 30.4805C21.5625 30.3516 21.2695 30.4219 21.1289 30.6563L20.5898 31.582C20.4609 31.8164 20.5312 32.1094 20.7656 32.25L21.8672 32.8828C21.9492 32.9297 21.9492 33.0469 21.8672 33.0938L20.1679 34.0781C20.0508 34.1484 19.9219 34.1602 19.8047 34.125L13.4765 32.4375C13.2187 32.3672 12.9492 32.5195 12.8789 32.7773L12.4219 34.5117C12.3515 34.7695 12.5039 35.0391 12.7617 35.1094L16.3242 36.0586C16.4297 36.082 16.4531 36.2227 16.3476 36.2813L11.9414 38.8359C11.707 38.9648 11.625 39.2695 11.7656 39.5039L12.6679 41.0508C12.7969 41.2852 13.1015 41.3672 13.3359 41.2266L17.7422 38.6719C17.8359 38.6133 17.9531 38.707 17.9179 38.8125L16.9687 42.375C16.8984 42.6328 17.0508 42.9023 17.3086 42.9727L19.0429 43.4297C19.3008 43.5 19.5703 43.3477 19.6406 43.0898L21.3281 36.7617C21.3633 36.6328 21.4453 36.5273 21.5508 36.4688L23.25 35.4844C23.332 35.4375 23.4375 35.4961 23.4375 35.5898V36.8555C23.4375 37.125 23.6601 37.3359 23.9297 37.3359H24.9961C25.2656 37.3359 25.4765 37.1133 25.4765 36.8438L25.4648 34.4766C25.4648 34.3008 25.5586 34.1367 25.7109 34.0547L27.8554 32.8125C28.1836 32.625 28.582 32.8594 28.582 33.2344V35.7188C28.582 35.8945 28.4883 36.0586 28.3359 36.1406L26.2851 37.3125C26.0508 37.4414 25.9687 37.7461 26.1094 37.9805L26.6484 38.9063C26.7773 39.1406 27.082 39.2227 27.3164 39.082L28.4179 38.4492C28.5 38.4023 28.6054 38.4609 28.6054 38.5547V40.5117C28.6054 40.6406 28.5586 40.7695 28.4648 40.8516L23.8359 45.4805C23.6484 45.668 23.6484 45.9727 23.8359 46.1719L25.1015 47.4375C25.289 47.625 25.5937 47.625 25.7929 47.4375L28.4062 44.8242C28.4883 44.7422 28.6172 44.8008 28.6172 44.9063V50.0039C28.6172 50.2734 28.8398 50.4844 29.0976 50.4844H30.8906C31.1601 50.4844 31.3711 50.2617 31.3711 50.0039V44.918C31.3711 44.8125 31.5 44.7539 31.582 44.8359L34.1953 47.4492C34.3828 47.6367 34.6875 47.6367 34.8867 47.4492L36.1523 46.1836C36.3398 45.9961 36.3398 45.6914 36.1523 45.4922L31.5234 40.875C31.4297 40.7812 31.3828 40.6641 31.3828 40.5352V38.5781C31.3828 38.4844 31.4883 38.4258 31.5703 38.4727L32.6719 39.1055C32.9062 39.2344 33.1992 39.1641 33.3398 38.9297L33.8789 38.0039C34.0078 37.7695 33.9375 37.4766 33.7031 37.3359L31.6406 36.1523C31.4883 36.0703 31.3945 35.9063 31.3945 35.7305V33.2578C31.3945 32.8828 31.8047 32.6484 32.1211 32.8359L34.2656 34.0781C34.4179 34.1602 34.5117 34.3242 34.5117 34.5L34.5 36.8672C34.5 37.1367 34.7109 37.3594 34.9804 37.3594H36.0469C36.3164 37.3594 36.539 37.1484 36.539 36.8789V35.6133C36.539 35.5195 36.6445 35.4609 36.7265 35.5078L38.4258 36.4922C38.5429 36.5625 38.625 36.668 38.6484 36.7852L40.3359 43.1133C40.4062 43.3711 40.6758 43.5234 40.9336 43.4531L42.6679 42.9961C42.9258 42.9258 43.0781 42.6562 43.0078 42.3984L42.0586 38.8359C42.0351 38.7305 42.1406 38.6484 42.2343 38.6953L46.6406 41.25C46.875 41.3789 47.1679 41.3086 47.3086 41.0742L48.2109 39.5273C48.3398 39.293 48.2695 39 48.0351 38.8594L43.6289 36.3047C43.5351 36.2461 43.5586 36.1055 43.6523 36.082L47.2148 35.1328C47.4609 35.0391 47.625 34.7695 47.5547 34.5117Z" fill="#3F4E54"/>
</svg>
