<svg width="60" height="60" viewBox="0 0 60 60" fill="none" xmlns="http://www.w3.org/2000/svg">
<path d="M59.1797 31.2422L58.4883 29.6719C58.4648 29.625 58.418 29.6133 58.3711 29.6367L58.0898 29.8008C58.0312 29.8359 57.9609 29.8477 57.9023 29.8477L56.4844 29.7305C56.4258 29.7305 56.3789 29.6953 56.3555 29.6367L55.3125 27.6211C55.2656 27.5273 55.3125 27.4102 55.418 27.3867L57.2461 26.9414C57.3164 26.9297 57.375 26.9062 57.4336 26.8828L58.043 26.6367C58.0898 26.6133 58.1133 26.5664 58.0898 26.5195L57.5273 25.3945C57.4805 25.3008 57.3867 25.2305 57.2812 25.207L54.1289 24.7383C54.082 24.7266 54.0352 24.7734 54.0352 24.8203V24.9375C54.0352 25.0078 53.9883 25.0664 53.9297 25.0898C53.7656 25.1484 53.4375 25.2656 53.2617 25.3359C53.1797 25.3711 53.0742 25.3594 52.9922 25.3242C47.5781 22.5703 45.1523 21.9727 44.6836 21.8789C44.6367 21.8672 44.6133 21.8203 44.625 21.7734L44.707 21.4102C44.7188 21.3633 44.6836 21.3164 44.6484 21.3164L43.1602 20.9648C41.9062 20.6602 40.6289 20.5078 39.3516 20.5078L34.8047 20.4961C34.0664 20.4961 33.3281 20.5078 32.5898 20.5547L31.4062 20.625C30.4219 20.6836 29.4375 20.8008 28.4648 20.9648C27.2109 21.1875 25.5234 21.4805 25.0078 21.5625C24.9375 21.5742 24.9141 21.6563 24.9727 21.7031C25.0781 21.7969 25.2188 21.9375 25.3242 22.0313C25.3711 22.0781 25.3477 22.1484 25.3008 22.1602C24.6797 22.3711 21.7617 23.4727 17.1562 26.707C17.0273 26.8008 16.875 26.8594 16.7227 26.8828C16.3828 26.9297 15.7734 27.0234 15.4219 27.0703C15.2461 27.0938 15.0703 27.0469 14.9297 26.9414L14.332 26.4961C14.2617 26.4492 14.1797 26.4258 14.0977 26.4375L9.375 26.9063C8.34375 27.0117 7.32422 27.2461 6.35156 27.5977L2.98828 28.7813C2.69531 28.8867 2.4375 29.0977 2.28516 29.3672L1.05469 31.4414C0.960938 31.6055 0.890625 31.8047 0.878906 31.9922L0.738281 33.4336C0.726563 33.6094 0.738281 33.7734 0.785156 33.9375L1.24219 35.4844C1.25391 35.543 1.21875 35.5898 1.16016 35.5898H1.04297C0.855469 35.5898 0.703125 35.7422 0.703125 35.918V36.2227C0.703125 36.3867 0.808594 36.5156 0.972656 36.5508C1.875 36.7383 4.81641 37.3711 5.51953 37.5234C5.625 37.5469 5.73047 37.5586 5.83594 37.5586L6.59766 37.5469C6.70312 37.5469 6.78516 37.4414 6.75 37.3359C6.60938 36.8438 6.52734 36.3281 6.52734 35.7891C6.53906 32.9531 8.76562 30.6563 11.4844 30.668C14.2031 30.6797 16.4062 33 16.3828 35.8359C16.3828 36.2812 16.3242 36.7031 16.2187 37.1133C16.1953 37.2188 16.2773 37.3242 16.3828 37.3242L41.9297 36.7148C42.0234 36.7148 42.1055 36.6211 42.0938 36.5273C42.0586 36.2813 42.0469 36.0352 42.0469 35.7773C42.0586 32.9414 44.2852 30.6445 47.0039 30.6563C49.7227 30.668 51.9258 32.9883 51.9023 35.8242C51.9023 35.9531 51.8906 36.082 51.8906 36.2109C51.8789 36.3164 51.9727 36.3984 52.0781 36.3867L56.4609 35.707C56.707 35.6719 56.9414 35.5664 57.1289 35.3906L58.5938 34.125C58.8281 33.9258 58.9805 33.6445 59.0391 33.3398L59.2617 32.0039C59.3203 31.7461 59.2852 31.4766 59.1797 31.2422ZM4.54688 36.3047L2.75391 36.293C2.68359 36.293 2.625 36.2461 2.60156 36.1758L1.93359 34.2305C1.89844 34.125 1.96875 34.0195 2.07422 34.0078L4.30078 33.7148C4.39453 33.7031 4.47656 33.7734 4.48828 33.8672L4.73438 36.1055C4.72266 36.2109 4.64062 36.3047 4.54688 36.3047ZM6.16406 30.1172L5.55469 31.207C5.44922 31.3828 5.28516 31.5117 5.07422 31.5352L2.85938 31.8984C2.74219 31.9219 2.63672 31.9102 2.53125 31.8633L1.96875 31.6641C1.92187 31.6406 1.89844 31.582 1.92188 31.5352L2.8125 30.1289C2.87109 30.0352 2.97656 29.9766 3.08203 29.9766L6.01172 29.8594C6.14062 29.8594 6.22266 30 6.16406 30.1172ZM32.3203 22.1836L31.2891 26.4023C31.2539 26.543 31.125 26.6484 30.9727 26.6602L22.6523 26.9531C22.5586 26.9531 22.4766 26.8828 22.4766 26.7891V26.1211C22.4766 26.0391 22.4414 25.957 22.3945 25.8984L22.0547 25.5117C21.9961 25.4414 21.9023 25.4062 21.8086 25.3945H21.1641C21.082 25.3945 21.0469 25.2891 21.1172 25.2422C22.1016 24.5742 26.3672 21.8789 31.9805 21.7734C32.2031 21.7734 32.3672 21.9727 32.3203 22.1836ZM45.9141 24.375L44.332 25.957C44.2148 26.0742 44.0508 26.1445 43.8867 26.1562L34.0664 26.4844C33.8672 26.4961 33.7031 26.3203 33.7266 26.1211L34.1133 22.0898C34.125 21.9141 34.2773 21.7852 34.4531 21.7852L39.832 21.8086C40.2773 21.8086 40.7227 21.9023 41.1211 22.0781L45.8789 24.1055C45.9727 24.1523 45.9961 24.293 45.9141 24.375Z" fill="#3F4E54"/>
<path d="M11.4844 31.418C9.24609 31.418 7.42969 33.2344 7.42969 35.4727C7.42969 37.7109 9.24609 39.5273 11.4844 39.5273C13.7227 39.5273 15.5391 37.7109 15.5391 35.4727C15.5391 33.2461 13.7227 31.418 11.4844 31.418ZM11.4844 38.5078C9.82031 38.5078 8.46094 37.1602 8.46094 35.4844C8.46094 33.8203 9.80859 32.4609 11.4844 32.4609C13.1484 32.4609 14.5078 33.8086 14.5078 35.4844C14.5078 37.1484 13.1484 38.5078 11.4844 38.5078Z" fill="#3F4E54"/>
<path d="M46.957 31.418C44.7188 31.418 42.9023 33.2344 42.9023 35.4727C42.9023 37.7109 44.7188 39.5273 46.957 39.5273C49.1953 39.5273 51.0117 37.7109 51.0117 35.4727C51.0117 33.2461 49.1953 31.418 46.957 31.418ZM46.957 38.5078C45.293 38.5078 43.9336 37.1602 43.9336 35.4844C43.9336 33.8203 45.2813 32.4609 46.957 32.4609C48.6211 32.4609 49.9805 33.8086 49.9805 35.4844C49.9805 37.1484 48.6211 38.5078 46.957 38.5078Z" fill="#3F4E54"/>
</svg>
