<svg width="60" height="60" viewBox="0 0 60 60" fill="none" xmlns="http://www.w3.org/2000/svg">
<path d="M32.3203 11.8125C28.3125 11.8125 24.5977 13.125 21.5859 15.3281C21.375 15.4805 21.3516 15.7969 21.5391 15.9844L22.3828 16.8281C22.8867 17.332 22.8867 18.1523 22.3828 18.6562L19.1602 21.8906C18.9961 22.0547 18.9141 22.2656 18.9141 22.5V37.5703C18.9141 37.793 19.0078 38.0156 19.1719 38.1797L22.3828 41.3906C22.8867 41.8945 22.8867 42.7148 22.3828 43.2188L21.5508 44.0508C21.3633 44.2383 21.3867 44.543 21.5977 44.707C24.6094 46.9102 28.3125 48.2109 32.3203 48.2109C42.4102 48.2109 50.6016 39.9609 50.5078 29.8594C50.4141 19.8281 42.3281 11.8125 32.3203 11.8125ZM32.3203 41.2383C26.1211 41.2383 21.082 36.1992 21.082 30C21.082 23.8008 26.1211 18.7617 32.3203 18.7617C38.5195 18.7617 43.5586 23.8008 43.5586 30C43.5586 36.1992 38.5195 41.2383 32.3203 41.2383Z" fill="#3F4E54"/>
<path d="M32.3203 19.7461C26.6719 19.7461 22.0664 24.3398 22.0664 30C22.0664 35.6602 26.6719 40.2539 32.3203 40.2539C37.9687 40.2539 42.5742 35.6484 42.5742 30C42.5742 24.3516 37.9687 19.7461 32.3203 19.7461ZM26.7891 33.0586C26.2617 33.5859 25.4062 33.5859 24.8789 33.0586C24.3516 32.5313 24.3516 31.6758 24.8789 31.1484C25.4062 30.6211 26.2617 30.6211 26.7891 31.1484C27.3164 31.6758 27.3164 32.5313 26.7891 33.0586ZM27.3516 25.4297C26.8242 24.9023 26.8242 24.0469 27.3516 23.5195C27.8789 22.9922 28.7344 22.9922 29.2617 23.5195C29.7891 24.0469 29.7891 24.9023 29.2617 25.4297C28.7344 25.957 27.8789 25.957 27.3516 25.4297ZM33.2695 37.7344C32.7422 38.2617 31.8867 38.2617 31.3594 37.7344C30.832 37.207 30.832 36.3516 31.3594 35.8242C31.8867 35.2969 32.7422 35.2969 33.2695 35.8242C33.7969 36.3516 33.7969 37.207 33.2695 37.7344ZM32.3203 32.9766C30.6797 32.9766 29.3437 31.6406 29.3437 30C29.3437 28.3594 30.6797 27.0234 32.3203 27.0234C33.9609 27.0234 35.2969 28.3594 35.2969 30C35.2969 31.6406 33.9609 32.9766 32.3203 32.9766ZM35.3672 25.4297C34.8398 24.9023 34.8398 24.0469 35.3672 23.5195C35.8945 22.9922 36.75 22.9922 37.2773 23.5195C37.8047 24.0469 37.8047 24.9023 37.2773 25.4297C36.75 25.957 35.8945 25.957 35.3672 25.4297ZM37.8516 33.0586C37.3242 32.5313 37.3242 31.6758 37.8516 31.1484C38.3789 30.6211 39.2344 30.6211 39.7617 31.1484C40.2891 31.6758 40.2891 32.5313 39.7617 33.0586C39.2344 33.5859 38.3789 33.5859 37.8516 33.0586Z" fill="#3F4E54"/>
<path d="M18.3047 21.3516L21.5977 18.0469C21.7617 17.8828 21.7617 17.6016 21.5977 17.4375L20.4141 16.2539L19.7461 15.5859L19.4297 15.2695C19.1836 15.0234 18.8555 14.8945 18.5156 14.8945H16.2891C15.9492 14.8945 15.6211 15.0352 15.375 15.2695L9.86719 20.7773C9.62109 21.0234 9.49219 21.3516 9.49219 21.6914V38.332C9.49219 38.6719 9.63281 39 9.86719 39.2461L15.375 44.7539C15.6211 45 15.9492 45.1289 16.2891 45.1289H18.5039C18.8437 45.1289 19.1719 44.9883 19.418 44.7539L19.7578 44.4141L20.4258 43.7461L21.5859 42.5859C21.75 42.4219 21.75 42.1406 21.5859 41.9766L18.3047 38.6953C18.0586 38.4492 17.9297 38.1211 17.9297 37.7812V22.2539C17.9297 21.9258 18.0586 21.5977 18.3047 21.3516ZM12.6914 29.0391C13.2188 28.5117 14.0742 28.5117 14.6016 29.0391C15.1289 29.5664 15.1289 30.4219 14.6016 30.9492C14.0742 31.4766 13.2188 31.4766 12.6914 30.9492C12.1641 30.4219 12.1641 29.5664 12.6914 29.0391ZM15.5156 39.9258C14.9883 40.4531 14.1328 40.4531 13.6055 39.9258C13.0781 39.3984 13.0781 38.543 13.6055 38.0156C14.1328 37.4883 14.9883 37.4883 15.5156 38.0156C16.043 38.543 16.043 39.3984 15.5156 39.9258ZM15.5156 22.0195C14.9883 22.5469 14.1328 22.5469 13.6055 22.0195C13.0781 21.4922 13.0781 20.6367 13.6055 20.1094C14.1328 19.582 14.9883 19.582 15.5156 20.1094C16.043 20.6367 16.043 21.4922 15.5156 22.0195Z" fill="#3F4E54"/>
</svg>
