<svg width="60" height="60" viewBox="0 0 60 60" fill="none" xmlns="http://www.w3.org/2000/svg">
<path d="M0.599976 25.8113V33.8549H12.4902C24.2826 33.8549 24.3804 33.8549 24.3804 34.1345C24.3804 34.3865 24.2826 34.4141 23.5272 34.4141C22.926 34.4141 22.6878 34.4561 22.7298 34.5821C22.758 34.6799 22.8978 35.1275 23.0376 35.5613C23.3034 36.3587 23.3172 36.3725 23.8488 36.3725H24.3804V37.0019C24.3804 37.5335 24.3384 37.6313 24.1008 37.6313C23.8632 37.6313 23.8212 37.7291 23.8212 38.3309V39.0305H34.746H45.657L45.615 38.3591L45.573 37.7015L44.3142 37.6313L43.0554 37.5611V37.0013V36.4415L44.0064 36.3995L44.9436 36.3575V35.3921V34.4411H46.2162C47.2932 34.4411 47.5314 34.3991 47.7828 34.1615C48.6918 33.3359 50.3706 32.9585 51.6018 33.2939C51.9654 33.3917 52.5672 33.6995 52.9584 33.9653L53.658 34.4411H56.4276C57.9666 34.4273 59.2674 34.3991 59.3376 34.3433C59.4216 34.3013 59.4216 34.0913 59.3376 33.8117C59.2674 33.5741 59.1696 32.5247 59.1138 31.5035C59.0436 29.8949 58.9878 29.6153 58.764 29.4755C58.5402 29.3219 58.512 29.0981 58.512 27.3071C58.512 25.3349 58.512 25.3067 58.806 25.3907C59.058 25.4747 59.0856 25.4465 58.9878 25.1531C58.932 24.9851 58.89 24.5237 58.9176 24.1601C58.9878 22.6913 58.176 21.3905 56.7216 20.6489C55.4208 19.9913 54.5676 19.8377 51.7278 19.7813C48.3846 19.7255 48.0072 19.6697 46.9716 19.2497C45.9228 18.8021 45.7128 18.8021 45.2928 19.2359L44.943 19.5713V26.9993V34.4141H43.9638C43.0824 34.4141 42.9846 34.3859 42.9846 34.1345C42.9846 33.8969 43.0824 33.8549 43.6842 33.8549H44.3838V25.8113V17.7683H22.4916H0.599976V25.8113ZM52.497 25.0979C52.497 25.4057 52.203 28.1753 52.161 28.2173C52.1472 28.2311 51.5454 28.1615 50.832 28.0493C49.0974 27.7973 48.8598 27.5735 48.8598 26.3429C48.8598 24.9023 48.8598 24.9023 50.8182 24.9023C52.161 24.9023 52.497 24.9443 52.497 25.0979ZM57.6444 25.0703C57.7566 25.1819 57.8124 25.8677 57.8124 27.2525V29.2667L56.8752 29.1689C56.3436 29.1131 55.1964 28.9589 54.3156 28.8335L52.707 28.6097L52.665 26.7491L52.623 24.9023H55.0572C56.7492 24.9023 57.5328 24.9581 57.6444 25.0703ZM33.4728 34.1345C33.4728 34.4141 33.375 34.4141 29.2764 34.4141C25.1778 34.4141 25.08 34.4141 25.08 34.1345C25.08 33.8549 25.1778 33.8549 29.2764 33.8549C33.375 33.8549 33.4728 33.8549 33.4728 34.1345ZM41.7258 34.1345C41.7258 34.4141 41.628 34.4141 37.8792 34.4141C34.1304 34.4141 34.0326 34.4141 34.0326 34.1345C34.0326 33.8549 34.1304 33.8549 37.8792 33.8549C41.628 33.8549 41.7258 33.8549 41.7258 34.1345ZM26.3388 37.0019V37.6313H25.7094H25.08V37.0019V36.3725H25.7094H26.3388V37.0019ZM28.2972 37.0019C28.2972 37.5755 28.269 37.6313 27.9474 37.6313C27.6258 37.6313 27.5976 37.5755 27.5976 37.0019C27.5976 36.4283 27.6258 36.3725 27.9474 36.3725C28.269 36.3725 28.2972 36.4283 28.2972 37.0019ZM30.8148 37.0019V37.6313H30.1854H29.556V37.0019V36.3725H30.1854H30.8148V37.0019ZM33.4446 37.0301L33.4866 37.6313H32.787H32.0736V37.0997C32.0736 36.4145 32.1438 36.3443 32.8428 36.4001C33.3888 36.4427 33.4026 36.4565 33.4446 37.0301ZM34.7316 37.0019C34.7316 37.5755 34.7034 37.6313 34.3818 37.6313C34.0602 37.6313 34.032 37.5755 34.032 37.0019C34.032 36.4283 34.0602 36.3725 34.3818 36.3725C34.7034 36.3725 34.7316 36.4283 34.7316 37.0019ZM37.2492 37.0019V37.6313H36.6198H35.9904V37.0019V36.3725H36.6198H37.2492V37.0019ZM39.7674 37.0019V37.6313H39.138H38.5086V37.0997C38.5086 36.4283 38.5644 36.3725 39.2358 36.3725H39.7674V37.0019ZM41.7258 37.0019C41.7258 37.5335 41.6838 37.6313 41.4462 37.6313C41.2086 37.6313 41.1666 37.5335 41.1666 37.0019C41.1666 36.4703 41.2086 36.3725 41.4462 36.3725C41.6838 36.3725 41.7258 36.4703 41.7258 37.0019Z" fill="#3F4E54"/>
<path d="M49.4195 33.981C47.6291 34.5408 46.3139 36.177 46.1183 38.1636C46.0061 39.2406 46.2581 39.3527 46.3979 38.2896C46.7615 35.604 49.3073 33.939 51.8111 34.7646C53.3219 35.268 54.5951 36.975 54.5951 38.4714C54.5951 38.7792 54.6653 39.0312 54.7349 39.0312C54.8189 39.0312 54.8747 38.8776 54.8747 38.6814C54.8747 38.3316 54.8885 38.3316 56.0639 38.3316C57.2249 38.3316 57.2531 38.3454 57.2531 38.6676C57.2531 39.2274 58.1903 39.2274 58.8197 38.6538C59.0297 38.4582 59.0717 38.178 59.0717 36.7656V35.115H56.3579H53.6441L52.8329 34.6254C52.3853 34.3596 51.7979 34.0656 51.5177 33.996C50.9441 33.8406 49.9229 33.8268 49.4195 33.981Z" fill="#3F4E54"/>
<path d="M2.44616 35.0998C2.12456 35.4772 1.85876 35.9248 1.85876 36.079C1.85876 36.373 1.91456 36.373 5.46776 36.373H9.07676L9.49616 35.9392C10.0836 35.3098 10.8948 34.9462 11.874 34.8622C12.993 34.7782 13.944 35.0998 14.7696 35.827C15.525 36.4846 15.861 36.5122 16.4904 35.953C17.4138 35.1418 18.0432 34.9036 19.2738 34.9036C20.4768 34.9036 21.078 35.1274 21.9876 35.8828L22.4214 36.2602V35.3368V34.4134H12.7278H3.01976L2.44616 35.0998Z" fill="#3F4E54"/>
<path d="M48.8736 35.4773C46.7052 36.5687 46.272 39.5339 48.0486 41.2265C50.3148 43.3949 54.0354 41.8277 54.0354 38.6945C54.0354 36.6383 52.5246 35.1275 50.4546 35.1137C49.8252 35.1137 49.4334 35.1977 48.8736 35.4773ZM51.6714 36.4427C52.2168 36.7367 52.7484 37.4219 52.9164 38.0651C53.3082 39.5057 52.3008 40.9607 50.8182 41.1005C49.9092 41.1845 49.5174 41.0723 48.9156 40.5407C46.6776 38.5829 49.0416 35.0855 51.6714 36.4427Z" fill="#3F4E54"/>
<path d="M11.0497 35.5896C8.26566 36.6246 7.95846 40.3458 10.5463 41.7444C13.6099 43.4232 16.9111 39.87 14.9665 36.9744C14.1127 35.7012 12.3925 35.0856 11.0497 35.5896ZM13.4833 36.8622C14.0989 37.254 14.4763 38.0094 14.4763 38.8206C14.4763 40.1496 13.4689 41.1288 12.0985 41.1288C10.8397 41.1288 9.83227 40.1214 9.83227 38.8488C9.83227 36.8904 11.8327 35.799 13.4833 36.8622Z" fill="#3F4E54"/>
<path d="M18.1835 35.5896C15.3857 36.639 15.0779 40.3314 17.6939 41.7582C20.2115 43.1292 23.2331 40.8492 22.5617 38.0652C22.2119 36.5964 21.0089 35.5614 19.5263 35.4492C19.0367 35.4072 18.5051 35.4636 18.1835 35.5896ZM20.6171 36.8622C22.4915 38.0652 21.5261 41.1288 19.2743 41.1288C17.5259 41.1288 16.4207 39.2964 17.1899 37.6878C17.7635 36.4848 19.4003 36.093 20.6171 36.8622Z" fill="#3F4E54"/>
</svg>
