<svg width="60" height="60" viewBox="0 0 60 60" fill="none" xmlns="http://www.w3.org/2000/svg">
<path d="M30 9.49219C18.6914 9.49219 9.49219 18.6914 9.49219 30C9.49219 41.3086 18.6914 50.5078 30 50.5078C41.3086 50.5078 50.5078 41.3086 50.5078 30C50.5078 18.6914 41.3086 9.49219 30 9.49219ZM47.4727 27.9727C46.8633 27.2461 45.9609 26.7891 44.9414 26.7891C43.6055 26.7891 42.457 27.5859 41.9297 28.7227C41.6953 26.4727 40.8281 24.3984 39.5156 22.6875C40.6758 23.0859 42 22.8164 42.9258 21.9023C43.6641 21.1641 43.9805 20.1445 43.8633 19.1719C45.7969 21.668 47.0859 24.6797 47.4727 27.9727ZM21.8555 42.9727C22.8164 42.0117 23.0625 40.6172 22.5938 39.4336C24.3281 40.8047 26.4492 41.6953 28.7695 41.9414C27.5625 42.4336 26.707 43.6172 26.707 45C26.707 45.9727 27.1289 46.8516 27.8086 47.4492C24.6211 47.0508 21.7031 45.7969 19.2773 43.9219C20.2031 43.9922 21.1523 43.6758 21.8555 42.9727ZM31.2539 41.9297C33.6211 41.6836 35.7773 40.7461 37.5352 39.3164C37.0195 40.5234 37.2422 41.9766 38.2383 42.9609C38.918 43.6406 39.832 43.957 40.7227 43.9219C38.3086 45.7852 35.4023 47.0391 32.2383 47.4375C32.9062 46.8281 33.3281 45.9609 33.3281 44.9883C33.3281 43.6055 32.4727 42.4219 31.2539 41.9297ZM30 39.0703C24.9961 39.0703 20.918 35.0039 20.918 29.9883C20.918 24.9727 24.9844 20.9062 30 20.9062C35.0156 20.9062 39.082 24.9727 39.082 29.9883C39.082 35.0039 35.0039 39.0703 30 39.0703ZM38.2383 17.2266C37.3242 18.1406 37.0664 19.4414 37.4297 20.5898C35.7773 19.2891 33.7852 18.3984 31.5938 18.1055C32.625 17.543 33.3164 16.4531 33.3164 15.1992C33.3164 14.0859 32.7656 13.1133 31.9336 12.5039C35.3438 12.8789 38.4609 14.2383 41.0039 16.2773C40.0195 16.1602 38.9883 16.4766 38.2383 17.2266ZM28.4297 18.1055C26.2969 18.3867 24.3281 19.2305 22.6992 20.4844C23.0273 19.3594 22.7461 18.1055 21.8672 17.2266C21.082 16.4414 20.0039 16.1367 18.9844 16.3008C21.5391 14.2383 24.6797 12.8789 28.1133 12.5039C27.2695 13.1016 26.7188 14.0859 26.7188 15.1992C26.707 16.4648 27.3984 17.543 28.4297 18.1055ZM16.2539 19.043C16.0898 20.0508 16.3945 21.1289 17.1797 21.9141C18.0703 22.8047 19.3359 23.0742 20.4609 22.7461C19.1953 24.4102 18.3516 26.4023 18.0937 28.582C17.543 27.5273 16.4414 26.8008 15.1641 26.8008C14.0859 26.8008 13.125 27.3281 12.5273 28.125C12.8789 24.7031 14.2266 21.5859 16.2539 19.043ZM12.5391 32.1211C13.1484 32.9062 14.0859 33.4102 15.1523 33.4102C16.4414 33.4102 17.5664 32.6719 18.1055 31.582C18.3984 33.8203 19.3125 35.8594 20.6719 37.5352C19.5 37.1016 18.1172 37.3477 17.1797 38.2969C16.4648 39.0117 16.1367 39.9844 16.2187 40.9219C14.2617 38.4375 12.9375 35.4141 12.5391 32.1211ZM43.875 40.793C43.9219 39.8906 43.6055 38.9766 42.9141 38.2969C41.9297 37.3125 40.4883 37.0781 39.2813 37.5937C40.6875 35.8711 41.625 33.75 41.9062 31.4414C42.4219 32.6016 43.582 33.4219 44.9297 33.4219C45.9375 33.4219 46.8281 32.9766 47.4375 32.2734C47.0273 35.4492 45.7617 38.3672 43.875 40.793Z" fill="#3F4E54"/>
<path d="M30 22.7812C26.0273 22.7812 22.7812 26.0156 22.7812 30C22.7812 33.9844 26.0156 37.2188 30 37.2188C33.9844 37.2188 37.2188 33.9844 37.2188 30C37.2188 26.0156 33.9844 22.7812 30 22.7812ZM30 35.4961C26.9648 35.4961 24.5039 33.0352 24.5039 30C24.5039 26.9648 26.9648 24.5039 30 24.5039C33.0352 24.5039 35.4961 26.9648 35.4961 30C35.4961 33.0352 33.0352 35.4961 30 35.4961Z" fill="#3F4E54"/>
</svg>
