<svg width="60" height="60" viewBox="0 0 60 60" fill="none" xmlns="http://www.w3.org/2000/svg">
<path d="M38.8125 30.8906V25.6523C38.8125 25.5 38.6602 25.418 38.543 25.4766L27.375 31.0781C27.2461 31.1484 27.1055 31.0547 27.1055 30.9023V25.6641C27.1055 25.5117 26.9531 25.4297 26.8359 25.4883L15.6328 31.0898C15.5039 31.1484 15.375 31.0781 15.3633 30.9375L13.7109 13.9453C13.6992 13.7344 13.5234 13.5938 13.3242 13.5938H11.5078C11.2969 13.5938 11.1328 13.7461 11.1211 13.9453L9.50391 31.0195C9.49219 31.1484 9.49219 31.2656 9.49219 31.3945V46.0312C9.49219 46.2539 9.66797 46.418 9.87891 46.418H16.7812C17.0039 46.418 17.168 46.2422 17.168 46.0312V41.0156C17.168 40.793 17.3438 40.6289 17.5547 40.6289H28.0781C28.3008 40.6289 28.4648 40.8047 28.4648 41.0156V46.0312C28.4648 46.2539 28.6406 46.418 28.8516 46.418H35.7187C35.9414 46.418 36.1055 46.2422 36.1055 46.0312V41.0156C36.1055 40.793 36.2812 40.6289 36.4922 40.6289H39.2461C39.4688 40.6289 39.6328 40.8047 39.6328 41.0156V46.0312C39.6328 46.2539 39.8086 46.418 40.0195 46.418H50.1328C50.3555 46.418 50.5195 46.2422 50.5195 46.0312V25.6406C50.5195 25.4883 50.3672 25.4062 50.25 25.4648L39.1172 31.0664C38.9766 31.1133 38.8125 31.0312 38.8125 30.8906ZM23.4844 36.8438H17.543C17.3203 36.8438 17.1562 36.668 17.1562 36.457V35.3555C17.1562 35.1328 17.332 34.9688 17.543 34.9688H23.4844C23.707 34.9688 23.8711 35.1445 23.8711 35.3555V36.457C23.8828 36.668 23.6953 36.8438 23.4844 36.8438ZM32.9883 36.8438H27.0469C26.8242 36.8438 26.6602 36.668 26.6602 36.457V35.3555C26.6602 35.1328 26.8359 34.9688 27.0469 34.9688H32.9883C33.2109 34.9688 33.375 35.1445 33.375 35.3555V36.457C33.375 36.668 33.1992 36.8438 32.9883 36.8438ZM42.4922 36.8438H36.5508C36.3281 36.8438 36.1641 36.668 36.1641 36.457V35.3555C36.1641 35.1328 36.3398 34.9688 36.5508 34.9688H42.4922C42.7148 34.9688 42.8789 35.1445 42.8789 35.3555V36.457C42.8789 36.668 42.7148 36.8438 42.4922 36.8438Z" fill="#3F4E54"/>
</svg>
