<svg width="60" height="60" viewBox="0 0 60 60" fill="none" xmlns="http://www.w3.org/2000/svg">
<path d="M59.1093 31.078L44.4258 23.7069C44.332 23.66 44.2265 23.6366 44.1328 23.6366H41.625C41.5312 23.6366 41.4609 23.5662 41.4609 23.4725V21.6444C41.4609 21.2811 41.1797 20.953 40.8047 20.9412C40.4179 20.9295 40.1133 21.2342 40.1133 21.6209V23.4842C40.1133 23.578 40.0429 23.6483 39.9492 23.6483H37.7578C37.582 23.6483 37.4062 23.7186 37.289 23.8475L36.4804 24.6561C36.3984 24.7381 36.4218 24.867 36.5273 24.9256L47.8476 30.6209C48.0937 30.7498 48.0937 31.1014 47.8359 31.2186L44.4258 32.742C44.1328 32.8709 43.8164 32.9295 43.5 32.9178L0.878882 30.4803C0.726538 30.4686 0.644507 30.6444 0.749976 30.7616L7.85154 38.7303C8.03904 38.9412 8.30857 39.0701 8.58982 39.0701H54.1054C54.457 39.0701 54.7734 38.8944 54.9609 38.5897L59.25 31.5584C59.3554 31.3826 59.2851 31.1717 59.1093 31.078ZM8.15622 35.0155L6.28122 32.9061C6.16404 32.7655 6.25779 32.5428 6.44529 32.5545L8.90623 32.6952C9.04685 32.7069 9.16404 32.7772 9.23435 32.8944L9.99607 34.1483C10.0898 34.3123 10.0312 34.5233 9.85544 34.5936L8.63669 35.1209C8.47263 35.1912 8.28513 35.1444 8.15622 35.0155Z" fill="#3F4E54"/>
<path d="M46.6054 30.832L35.8593 25.418C35.789 25.3828 35.707 25.3711 35.6367 25.3945L22.4765 28.4531C22.3945 28.4766 22.3242 28.5 22.2538 28.5469L20.4492 29.7773C20.3554 29.8476 20.2382 29.8828 20.121 29.8945L14.0624 30.3047C13.957 30.3164 13.957 30.4687 14.0624 30.4687L43.5937 32.1445C43.7577 32.1562 43.9101 32.1211 44.0624 32.0625L46.6054 30.9258C46.6406 30.9023 46.6406 30.8437 46.6054 30.832ZM36.9726 28.7695L28.9687 29.1211C28.8281 29.1328 28.6992 29.1094 28.5703 29.0508L26.9999 28.4531C26.8476 28.3945 26.8593 28.1719 27.0234 28.1367L35.4257 26.25C35.5781 26.2148 35.7304 26.2383 35.871 26.2969L38.7304 27.7031C38.8476 27.7617 38.8593 27.9375 38.7304 27.9961L37.3827 28.6641C37.2421 28.7344 37.1015 28.7695 36.9726 28.7695Z" fill="#3F4E54"/>
</svg>
