<svg width="60" height="60" viewBox="0 0 60 60" fill="none" xmlns="http://www.w3.org/2000/svg">
<path d="M15.3516 29.9297C12.1172 29.9297 9.49219 32.5547 9.49219 35.7891C9.49219 39.0234 12.1172 41.6484 15.3516 41.6484C18.5859 41.6484 21.2109 39.0234 21.2109 35.7891C21.2109 32.5547 18.5859 29.9297 15.3516 29.9297ZM15.3516 40.1484C12.9375 40.1484 10.9922 38.1914 10.9922 35.7891C10.9922 33.375 12.9492 31.4297 15.3516 31.4297C17.7656 31.4297 19.7109 33.3867 19.7109 35.7891C19.7109 38.2031 17.7656 40.1484 15.3516 40.1484Z" fill="#3F4E54"/>
<path d="M48.3048 21.082H43.3126C43.1133 21.082 42.9141 21.1758 42.7852 21.3398L41.0626 23.4727C40.9571 23.6016 40.8165 23.6836 40.6641 23.7188L35.1329 24.7617C35.0157 24.7852 34.8868 24.7383 34.8048 24.6445L33.3751 22.8867C33.2696 22.7578 33.1407 22.6641 33.0001 22.5938L30.6212 21.5391C30.504 21.4922 30.3751 21.4688 30.2579 21.4922L23.8008 22.3945C23.7071 22.4063 23.6251 22.4531 23.5782 22.5352L22.8985 23.4609C22.8165 23.5781 22.6641 23.625 22.5235 23.5781L22.1133 23.4492C21.9376 23.3906 21.8438 23.2148 21.8907 23.0391L22.6993 19.9922C22.7344 19.8516 22.6876 19.7109 22.5704 19.6289L20.9063 18.4102C20.7891 18.3281 20.6251 18.3281 20.5079 18.4102L17.4258 20.707C17.0977 20.9531 16.8165 21.2578 16.5938 21.5977L13.8516 25.8867C13.7579 26.0273 13.7227 26.1914 13.7579 26.3555L13.9688 27.6445C13.9923 27.7852 14.1094 27.9023 14.2501 27.9258L17.3438 28.3945C17.6719 28.4414 17.9649 28.6055 18.1758 28.8633L21.8438 33.1992C22.0548 33.4453 22.1602 33.75 22.1602 34.0781V38.6719C22.1602 38.8711 22.3243 39.0234 22.5118 39.0117L35.3087 38.3672C35.461 38.3555 35.6016 38.3203 35.7305 38.25L36.7618 37.6992C36.8673 37.6406 36.9376 37.5234 36.9376 37.3945V36.6445C36.9376 36.4922 36.8907 36.3516 36.7969 36.2344L35.3204 34.2891C35.2383 34.1836 35.3204 34.0195 35.461 34.0195H36.8204C36.9258 34.0195 37.043 34.043 37.1368 34.1016L39.1876 35.1914C39.2579 35.2266 39.3282 35.25 39.4102 35.2617L44.8126 36.0703C45.4571 36.1641 45.8555 35.3906 45.3985 34.9336L43.7696 33.2461C43.6524 33.1289 43.5118 33.0234 43.3594 32.9531L37.8985 30.4336C37.7462 30.3633 37.5704 30.3516 37.4063 30.3984L35.4258 31.0195C35.2501 31.0781 35.0626 30.9844 35.004 30.8086L34.711 29.9648C34.6524 29.8008 34.7344 29.625 34.8868 29.543L45.3282 24.5273C45.4571 24.4688 45.5743 24.3633 45.6329 24.2344L46.3008 22.957C46.3477 22.8633 46.418 22.7813 46.5118 22.7227L48.3985 21.375C48.5391 21.293 48.4688 21.082 48.3048 21.082ZM15.5157 27.0469L14.8126 26.9766C14.7305 26.9648 14.6602 26.8945 14.6602 26.8125V26.543C14.6602 26.4844 14.6954 26.4258 14.754 26.3906L16.9688 25.2656C17.0508 25.2188 17.1563 25.2188 17.2383 25.2539L17.5899 25.3828C17.6485 25.4063 17.6602 25.4883 17.6133 25.5234L15.7618 26.9766C15.6915 27.0234 15.6094 27.0586 15.5157 27.0469Z" fill="#3F4E54"/>
<path d="M44.1211 28.8867C42.5391 28.8867 41.0742 29.4727 39.9609 30.4219C39.9141 30.457 39.9258 30.5391 39.9844 30.5625L41.2266 31.1367C41.332 31.1836 41.4492 31.1719 41.5547 31.1133C42.3047 30.6445 43.1836 30.375 44.1328 30.3867C46.8398 30.3867 49.0547 32.6484 49.0078 35.3438C48.9727 38.0039 46.793 40.1484 44.1211 40.1484C41.7187 40.1484 39.7266 38.4141 39.3164 36.1406C39.3047 36.0703 39.2578 36.0234 39.1875 36C39.0586 35.9766 38.9414 35.9297 38.8242 35.8711L37.8516 35.3555C37.793 35.3203 37.7227 35.3672 37.7227 35.4375C37.8164 38.8828 40.6406 41.6484 44.1094 41.6484C47.6367 41.6484 50.4961 38.7891 50.4961 35.2617C50.5078 31.7461 47.6484 28.8867 44.1211 28.8867Z" fill="#3F4E54"/>
</svg>
