<svg width="60" height="60" viewBox="0 0 60 60" fill="none" xmlns="http://www.w3.org/2000/svg">
<path d="M14.3202 36.3635C13.7108 37.0667 13.2537 37.8635 12.9256 38.7659V38.7542L11.2733 38.6956C11.1327 38.6956 11.0155 38.7893 10.992 38.9182L10.7225 40.4651C10.6991 40.6057 10.7811 40.7346 10.91 40.7698L12.492 41.2854V41.2737C12.492 41.2971 12.492 41.3088 12.492 41.3323C12.492 42.2698 12.6561 43.1721 12.9725 44.0159L11.6717 45.0354C11.5662 45.1174 11.5311 45.2698 11.6014 45.387L12.3866 46.7463C12.4569 46.8635 12.5975 46.9104 12.7264 46.8635L14.2616 46.2424L14.2498 46.219C14.8475 46.9456 15.5741 47.5549 16.3944 48.0237H16.3827L16.0311 49.6409C16.0077 49.7815 16.078 49.9104 16.2069 49.9573L17.6834 50.4963C17.8123 50.5432 17.953 50.4846 18.0233 50.3674L18.7967 48.9026C19.242 48.9846 19.7108 49.0315 20.1795 49.0315C20.6483 49.0315 21.117 48.9846 21.5623 48.9026L22.3358 50.3674C22.4061 50.4846 22.5467 50.5432 22.6756 50.4963L24.1522 49.9573C24.2811 49.9104 24.3514 49.7698 24.328 49.6409L23.9764 48.0237H23.9647C24.785 47.5549 25.5116 46.9456 26.1092 46.219L26.0975 46.2424L27.6327 46.8635C27.7616 46.9104 27.9022 46.8635 27.9725 46.7463L28.7577 45.387C28.828 45.2698 28.7928 45.1174 28.6873 45.0354L27.3748 44.0159C27.6795 43.1838 27.8553 42.2815 27.8553 41.344C27.8553 41.3206 27.8553 41.3088 27.8553 41.2854V41.2971L29.4256 40.7815C29.5545 40.7346 29.6366 40.6057 29.6131 40.4768L29.3436 38.9299C29.3202 38.7893 29.203 38.6956 29.0623 38.7073L27.41 38.7659C27.0936 37.8752 26.6248 37.0784 26.0155 36.3635L26.8944 34.9573C26.9647 34.8401 26.9412 34.6877 26.8358 34.594L25.6405 33.5862C25.535 33.4924 25.3827 33.5042 25.2772 33.5979L24.0467 34.7112C23.2498 34.2424 22.3944 33.926 21.4452 33.762L21.2108 32.1213C21.1873 31.9807 21.0702 31.887 20.9412 31.887H19.3709C19.2303 31.887 19.1131 31.9924 19.1014 32.1213L18.8787 33.762C17.9412 33.9143 17.0741 34.2424 16.2772 34.7112L15.0467 33.5979C14.9412 33.5042 14.7889 33.5042 14.6834 33.5862L13.4881 34.594C13.3827 34.6877 13.3592 34.8284 13.4295 34.9573L14.3202 36.3635ZM20.1795 47.1448C16.9803 47.1448 14.367 44.5432 14.367 41.3323C14.367 38.1331 16.9686 35.5198 20.1795 35.5198C23.3905 35.5198 25.992 38.1331 25.992 41.3323C25.9803 44.5315 23.3787 47.1448 20.1795 47.1448Z" fill="#3F4E54"/>
<path d="M22.0544 41.332C22.0544 42.375 21.2107 43.207 20.1794 43.207C19.1365 43.207 18.3044 42.3633 18.3044 41.332C18.3044 40.2891 19.1482 39.457 20.1794 39.457C21.2107 39.457 22.0544 40.2891 22.0544 41.332Z" fill="#3F4E54"/>
<path d="M20.1678 36.6096C17.5546 36.6096 15.4452 38.7307 15.4452 41.3323C15.4452 43.9456 17.5663 46.0549 20.1678 46.0549C22.7811 46.0549 24.8905 43.9338 24.8905 41.3323C24.9022 38.719 22.7811 36.6096 20.1678 36.6096ZM20.1678 44.9768C18.1639 44.9768 16.5233 43.3479 16.5233 41.3323C16.5233 39.3167 18.1522 37.6877 20.1678 37.6877C22.1835 37.6877 23.8124 39.3167 23.8124 41.3323C23.8124 43.3362 22.1835 44.9768 20.1678 44.9768Z" fill="#3F4E54"/>
<path d="M22.0544 41.332C22.0544 42.375 21.2107 43.207 20.1794 43.207C19.1365 43.207 18.3044 42.3633 18.3044 41.332C18.3044 40.2891 19.1482 39.457 20.1794 39.457C21.2107 39.457 22.0544 40.2891 22.0544 41.332Z" fill="#3F4E54"/>
<path d="M22.0544 41.332C22.0544 42.375 21.2107 43.207 20.1794 43.207C19.1365 43.207 18.3044 42.3633 18.3044 41.332C18.3044 40.2891 19.1482 39.457 20.1794 39.457C21.2107 39.457 22.0544 40.2891 22.0544 41.332Z" fill="#3F4E54"/>
<path fill-rule="evenodd" clip-rule="evenodd" d="M49.0896 25.7814L47.2966 24.9728C47.3552 24.2462 47.3552 23.5314 47.2966 22.8283L49.0896 22.0197C49.2419 21.9494 49.3123 21.7853 49.2654 21.633L48.2341 18.1408C48.1873 17.9884 48.0349 17.883 47.8709 17.9064L45.9138 18.1994C45.574 17.5666 45.1873 16.9689 44.7537 16.3947L45.8318 14.7306C45.9255 14.59 45.8904 14.4142 45.7732 14.3087L43.0193 11.9181C42.8904 11.8126 42.7146 11.8126 42.5857 11.9181L41.0974 13.2189C40.4763 12.8673 39.8201 12.5626 39.1404 12.3283L39.1521 10.3595C39.1521 10.1955 39.0349 10.0548 38.8709 10.0314L35.2732 9.49233C35.1091 9.4689 34.9568 9.56265 34.9099 9.72671L34.3591 11.6251C33.6326 11.6603 32.9294 11.7658 32.238 11.9298L31.1834 10.2658C31.1013 10.1251 30.9138 10.0783 30.7732 10.1486L27.4568 11.6603C27.3044 11.7306 27.2341 11.8947 27.281 12.047L27.8435 13.9455C27.2693 14.3673 26.7185 14.8361 26.2263 15.3517L24.4334 14.5197C24.281 14.4494 24.1052 14.508 24.0232 14.6369L22.0544 17.7072C21.9607 17.8478 21.9958 18.0236 22.113 18.1291L23.613 19.4181C23.3552 20.0744 23.156 20.7658 23.0037 21.4806L21.0466 21.7502C20.8826 21.7736 20.7654 21.9142 20.7654 22.0783V25.7228C20.7654 25.8869 20.8826 26.0275 21.0466 26.0509L23.0037 26.3205C23.1443 27.0236 23.3552 27.715 23.613 28.383L22.113 29.672C21.9841 29.7775 21.9607 29.965 22.0544 30.0939L24.0232 33.1642C24.1169 33.3048 24.2927 33.3517 24.4334 33.2814L26.2263 32.4494C26.7185 32.965 27.2693 33.4338 27.8435 33.8556L27.281 35.7423C27.2341 35.8947 27.3162 36.0705 27.4568 36.1291L30.7732 37.6408C30.9255 37.7111 31.1013 37.6525 31.1834 37.5236L32.238 35.8595C32.5896 35.9416 32.9412 36.0119 33.2927 36.0588C33.656 36.1056 34.0076 36.1408 34.3591 36.1642L34.9099 38.0627C34.9568 38.215 35.1091 38.3205 35.2732 38.297L38.8826 37.7814C39.0466 37.758 39.1638 37.6173 39.1638 37.4533L39.1521 35.4845C39.8318 35.2384 40.4763 34.9455 41.0974 34.5939L42.5857 35.8947C42.7146 36.0002 42.8904 36.0002 43.0193 35.8947L45.7732 33.5041C45.9021 33.3986 45.9255 33.2111 45.8318 33.0822L44.7537 31.4298C45.1873 30.8673 45.5857 30.2697 45.9138 29.6252L47.8591 29.9181C48.0232 29.9416 48.1755 29.8478 48.2224 29.6838L49.2537 26.1916C49.3123 26.0158 49.2302 25.8517 49.0896 25.7814ZM34.2537 22.2658H35.8474C36.0232 22.2658 36.1873 22.3595 36.2693 22.5236L36.8787 23.6486C36.9607 23.8009 36.9607 23.9884 36.8669 24.1291L36.0935 25.4298C36.0115 25.5705 35.8474 25.6642 35.6716 25.6642H34.406C34.2302 25.6642 34.0779 25.5705 33.9841 25.4298L33.2107 24.1291C33.1287 23.9767 33.1169 23.8009 33.199 23.6486L33.8084 22.5236C33.9138 22.3595 34.0779 22.2658 34.2537 22.2658ZM26.0974 27.6447C25.9685 27.715 25.8044 27.6681 25.7459 27.5275C25.3123 26.4142 25.0662 25.1955 25.0662 23.9181C25.0544 18.9728 28.6638 14.8478 33.3982 14.0509C33.5505 14.0275 33.6794 14.1447 33.6794 14.297V19.2775C33.6794 19.4064 33.574 19.5236 33.4333 19.5236H32.4958C32.3201 19.5236 32.156 19.6173 32.074 19.7814L30.0232 23.5314C29.9412 23.6837 29.9412 23.8712 30.0349 24.0119L30.4802 24.7502C30.5505 24.8673 30.5154 25.0197 30.3982 25.0783L26.0974 27.6447ZM42.6443 30.3634C40.8162 32.508 38.1091 33.8673 35.074 33.8791C32.0271 33.8908 29.2849 32.5197 27.4451 30.3634C27.3513 30.2463 27.3748 30.0705 27.5037 30.0002L31.7927 27.4455C31.9099 27.3752 32.0623 27.4103 32.1209 27.5275L32.5193 28.1837C32.613 28.3361 32.7654 28.4181 32.9412 28.4181H37.1482C37.324 28.4181 37.4763 28.3244 37.5701 28.1837L37.9685 27.5275C38.0388 27.4103 38.1912 27.3752 38.2966 27.4455L42.5857 30.0002C42.7029 30.0705 42.738 30.2463 42.6443 30.3634ZM44.3435 27.5275C44.2849 27.6681 44.1209 27.7267 43.9919 27.6447L39.9138 25.2072C39.6794 25.0666 39.6091 24.7736 39.7498 24.5392L40.0662 24.0119C40.1599 23.8595 40.1599 23.6837 40.0779 23.5314L38.0271 19.7814C37.9451 19.6291 37.781 19.5236 37.6052 19.5236H36.6677C36.5388 19.5236 36.4216 19.4181 36.4216 19.2775V14.297C36.4216 14.1447 36.5505 14.0275 36.7029 14.0626C41.4138 14.8478 45.0232 18.9494 45.0349 23.883C45.0232 25.1603 44.7888 26.3908 44.3435 27.5275Z" fill="#3F4E54"/>
</svg>
