<?xml version="1.0" encoding="utf-8"?>
<!-- Generator: Adobe Illustrator 24.0.2, SVG Export Plug-In . SVG Version: 6.00 Build 0)  -->
<svg version="1.1" id="Ebene_1" focusable="false" xmlns="http://www.w3.org/2000/svg" xmlns:xlink="http://www.w3.org/1999/xlink"
	 x="0px" y="0px" viewBox="0 0 512 512" style="enable-background:new 0 0 512 512;" xml:space="preserve">
<style type="text/css">
	.st0{fill:#FFFFFF;}
</style>
<path class="st0" d="M352.6,278.4l-1.5,1.5c-3.8,3.8-3.8,10,0,13.9l137,136.9c1.9,1.9,1.9,5,0,6.9c-0.9,0.9-2.2,1.5-3.5,1.5H27.3
	c-2.7,0-4.9-2.2-4.9-4.9c0-1.3,0.5-2.5,1.4-3.4l137-136.9c3.8-3.8,3.8-10,0-13.9l-1.5-1.5c-3.8-3.8-10-3.8-13.9,0L8.4,415.4
	c-1.9,1.9-5,1.9-7,0c-0.9-0.9-1.4-2.1-1.4-3.4V100.1c0-2.7,2.2-4.9,4.9-4.9c1.3,0,2.5,0.5,3.4,1.4L236.1,324c11,11,28.9,11,39.9,0
	L503.6,96.7c1.9-1.9,5-1.9,7,0c0.9,0.9,1.4,2.1,1.4,3.4v311.8c0,2.7-2.2,4.9-4.9,4.9c-1.3,0-2.5-0.5-3.4-1.4L366.5,278.4
	C362.7,274.6,356.5,274.6,352.6,278.4z"/>
<path class="st0" d="M484.7,72.9c2.7,0,4.9,2.2,4.9,4.9c0,1.3-0.5,2.6-1.5,3.5L260.6,308.6c-2.5,2.5-6.6,2.5-9.1,0c0,0,0,0,0,0
	L23.8,81.3c-1.9-1.9-1.9-5,0-6.9c0.9-0.9,2.2-1.5,3.5-1.5H484.7z"/>
</svg>
