<?xml version="1.0" encoding="utf-8"?>
<!-- Generator: Adobe Illustrator 24.0.2, SVG Export Plug-In . SVG Version: 6.00 Build 0)  -->
<svg version="1.1" id="Ebene_1" focusable="false" xmlns="http://www.w3.org/2000/svg" xmlns:xlink="http://www.w3.org/1999/xlink"
	 x="0px" y="0px" viewBox="0 0 640 512" style="enable-background:new 0 0 640 512;" xml:space="preserve">
<style type="text/css">
	.st0{fill:#FFFFFF;}
</style>
<path class="st0" d="M629.8,160.3L416,224l-50.5-25.2c-8.9-4.4-18.7-6.8-28.6-6.8H280v-48h56c8.8,0,16-7.2,16-16v-16
	c0-8.8-7.2-16-16-16H176c-8.8,0-16,7.2-16,16v16c0,8.8,7.2,16,16,16h56v48h-56C26.9,164.9,36.1,166.3,31.9,166.3
	c-17.3,0-31.9,14-31.9,32v94.9c0,15.5,11.1,28.7,26.3,31.5L96,337.5V384c0,17.7,14.3,32,32,32h274.6c8.5,0,16.8-3.4,22.8-9.5
	l212.3-214.8c1.5-1.5,2.3-3.5,2.3-5.7V168C640,162.2,634.5,159,629.8,160.3L629.8,160.3z M96,288.7l-48-8.7v-62.4l48,8.7V288.7z
	 M395.9,368H144V240h192.9c2.5,0,5,0.6,7.1,1.7c61.2,30.6,46,23,67.5,33.7c25.5-7.6,13-3.9,107.6-32.1L395.9,368z M549.3,373.3
	c0,23.6,19.1,42.7,42.7,42.7c23.6,0,42.7-19.1,42.7-42.7S592,288,592,288S549.3,349.8,549.3,373.3L549.3,373.3z"/>
</svg>
