<?xml version="1.0" encoding="utf-8"?>
<!-- Generator: Adobe Illustrator 23.0.4, SVG Export Plug-In . SVG Version: 6.00 Build 0)  -->
<svg version="1.1" id="Ebene_1" xmlns="http://www.w3.org/2000/svg" xmlns:xlink="http://www.w3.org/1999/xlink" x="0px" y="0px"
	 viewBox="0 0 156.6 36.9" style="enable-background:new 0 0 156.6 36.9;" xml:space="preserve">
<style type="text/css">
	.st0{clip-path:url(#SVGID_1_);fill:#E4170F;}
</style>
<g>
	<defs>
		<rect id="SVGID_3_" x="0" width="156.6" height="36.9"/>
	</defs>
	<clipPath id="SVGID_1_">
		<use xlink:href="#SVGID_3_"  style="overflow:visible;"/>
	</clipPath>
	<path class="st0" d="M0.9,36.4h9.5l2.3-13.2l1.4,0l5.3,13.2h10.6l-6.6-14.2c2.2-0.8,4.1-2.2,5.4-3.9c1.7-2.3,2.2-4.8,2.2-6.6
		c0-3.2-1.5-5.6-3.9-7.2c-2.3-1.5-5.3-1.9-9.6-1.9H0.3C0,2.5-0.1,3,0.2,3.2l5.3,2.3C6,5.6,6.2,6.1,6.1,6.5L0.9,36.4z M20.4,15.9
		L20.4,15.9c-0.9,0.8-2.3,1.2-3.9,1.2l-2.8,0l1.4-7.8l2,0c1.1,0,2.4,0.1,3.4,0.8c0.9,0.6,1.3,1.5,1.3,2.7
		C21.8,14.1,21.3,15.1,20.4,15.9"/>
	<path class="st0" d="M75.6,36.4h9.9c0,0,6.6-14,7.9-17h0.1c0.2,2.9,1.7,17,1.7,17h10.1l16.4-33.8h-9.8c0,0-8.2,17.7-9.5,20.7
		l-0.1,0c-0.2-2.9-2.1-20.7-2.1-20.7h-7.1c0,0-8.4,17.9-9.6,20.7h-0.1c-0.2-2.8-1.8-20.7-1.8-20.7H66.1c-0.4,0-0.5,0.5-0.1,0.6
		l5.3,2.3C71.8,5.6,72,6.1,72,6.5L75.6,36.4z"/>
	<path class="st0" d="M52.3,2C46.8,2,42,4.2,38.6,7.9c-3.5,3.9-5,8.9-5,13.2c0,9.9,7.6,15.7,16.6,15.7c5.5,0,10.3-2.2,13.7-5.9
		c3.5-3.9,5-8.9,5-13.2C68.9,7.9,61.4,2.1,52.3,2 M56.5,25.7c-1.4,1.6-3.4,2.8-6,2.8c-4.6,0-7.2-3.7-7.2-8c0-2.8,1.1-5.6,2.6-7.4
		c1.4-1.6,3.4-2.8,6-2.8c4.6,0,7.2,3.7,7.2,8C59.2,21.2,58,24,56.5,25.7"/>
	<polygon class="st0" points="144.7,10.7 146.1,2.5 124.5,2.5 118.5,36.4 140.6,36.4 142.1,28.2 129.7,28.2 130.6,23.3 140.6,23.3 
		142,15.6 131.9,15.6 132.8,10.7 	"/>
	<path class="st0" d="M151,2.8c0-1.6,1.2-2.8,2.8-2.8c1.6,0,2.8,1.2,2.8,2.8c0,1.6-1.2,2.8-2.8,2.8C152.2,5.6,151,4.4,151,2.8
		 M156.1,2.8c0-1.3-0.9-2.2-2.2-2.2c-1.3,0-2.2,1-2.2,2.2c0,1.3,0.9,2.2,2.2,2.2C155.2,5,156.1,4,156.1,2.8 M153.8,3.2h-0.3l0,1.1
		h-0.7l0-3h1.2c0.6,0,1.2,0.3,1.2,1c0,0.4-0.2,0.7-0.6,0.9l0.7,1.2h-0.9L153.8,3.2z M153.8,2.7c0.3,0,0.5-0.1,0.5-0.4
		c0-0.3-0.2-0.4-0.5-0.4h-0.4v0.8H153.8z"/>
</g>
</svg>
